<mxfile host="app.diagrams.net" agent="Mozilla/5.0 (Windows NT 10.0; Win64; x64) AppleWebKit/537.36 (KHTML, like Gecko) Chrome/131.0.0.0 Safari/537.36" version="25.0.3">
  <diagram id="ls4w6dlmkXlf1AVRSeKS" name="1 oldal">
    <mxGraphModel dx="1932" dy="1755" grid="1" gridSize="10" guides="1" tooltips="1" connect="1" arrows="1" fold="1" page="1" pageScale="1" pageWidth="827" pageHeight="1169" math="0" shadow="0">
      <root>
        <mxCell id="0" />
        <mxCell id="1" parent="0" />
        <mxCell id="JTYYkJW7ahCvb17KYF6b-3" value="" style="rounded=0;orthogonalLoop=1;jettySize=auto;html=1;endArrow=none;endFill=0;startArrow=ERoneToMany;startFill=0;" parent="1" source="JTYYkJW7ahCvb17KYF6b-1" target="JTYYkJW7ahCvb17KYF6b-2" edge="1">
          <mxGeometry relative="1" as="geometry" />
        </mxCell>
        <mxCell id="JTYYkJW7ahCvb17KYF6b-7" value="" style="edgeStyle=orthogonalEdgeStyle;rounded=0;orthogonalLoop=1;jettySize=auto;html=1;endArrow=none;endFill=0;startArrow=ERmandOne;startFill=0;" parent="1" source="JTYYkJW7ahCvb17KYF6b-1" target="JTYYkJW7ahCvb17KYF6b-6" edge="1">
          <mxGeometry relative="1" as="geometry" />
        </mxCell>
        <mxCell id="JTYYkJW7ahCvb17KYF6b-11" value="" style="edgeStyle=orthogonalEdgeStyle;rounded=0;orthogonalLoop=1;jettySize=auto;html=1;endArrow=none;endFill=0;startArrow=ERmandOne;startFill=0;" parent="1" source="JTYYkJW7ahCvb17KYF6b-1" target="JTYYkJW7ahCvb17KYF6b-10" edge="1">
          <mxGeometry relative="1" as="geometry" />
        </mxCell>
        <mxCell id="JTYYkJW7ahCvb17KYF6b-15" value="" style="edgeStyle=orthogonalEdgeStyle;rounded=0;orthogonalLoop=1;jettySize=auto;html=1;endArrow=none;endFill=0;startArrow=ERoneToMany;startFill=0;" parent="1" source="JTYYkJW7ahCvb17KYF6b-1" target="JTYYkJW7ahCvb17KYF6b-14" edge="1">
          <mxGeometry relative="1" as="geometry" />
        </mxCell>
        <mxCell id="JTYYkJW7ahCvb17KYF6b-19" value="" style="rounded=0;orthogonalLoop=1;jettySize=auto;html=1;endArrow=none;endFill=0;" parent="1" source="JTYYkJW7ahCvb17KYF6b-1" target="JTYYkJW7ahCvb17KYF6b-18" edge="1">
          <mxGeometry relative="1" as="geometry" />
        </mxCell>
        <mxCell id="JTYYkJW7ahCvb17KYF6b-21" value="" style="edgeStyle=none;rounded=0;orthogonalLoop=1;jettySize=auto;html=1;endArrow=none;endFill=0;" parent="1" source="JTYYkJW7ahCvb17KYF6b-1" target="JTYYkJW7ahCvb17KYF6b-20" edge="1">
          <mxGeometry relative="1" as="geometry" />
        </mxCell>
        <mxCell id="JTYYkJW7ahCvb17KYF6b-23" value="" style="edgeStyle=none;rounded=0;orthogonalLoop=1;jettySize=auto;html=1;endArrow=none;endFill=0;" parent="1" source="JTYYkJW7ahCvb17KYF6b-1" target="JTYYkJW7ahCvb17KYF6b-22" edge="1">
          <mxGeometry relative="1" as="geometry" />
        </mxCell>
        <mxCell id="JTYYkJW7ahCvb17KYF6b-25" value="" style="edgeStyle=none;rounded=0;orthogonalLoop=1;jettySize=auto;html=1;endArrow=none;endFill=0;" parent="1" source="JTYYkJW7ahCvb17KYF6b-1" target="JTYYkJW7ahCvb17KYF6b-24" edge="1">
          <mxGeometry relative="1" as="geometry" />
        </mxCell>
        <mxCell id="JTYYkJW7ahCvb17KYF6b-27" value="" style="edgeStyle=none;rounded=0;orthogonalLoop=1;jettySize=auto;html=1;endArrow=none;endFill=0;" parent="1" source="JTYYkJW7ahCvb17KYF6b-1" target="JTYYkJW7ahCvb17KYF6b-26" edge="1">
          <mxGeometry relative="1" as="geometry" />
        </mxCell>
        <mxCell id="JTYYkJW7ahCvb17KYF6b-29" value="" style="edgeStyle=none;rounded=0;orthogonalLoop=1;jettySize=auto;html=1;endArrow=none;endFill=0;" parent="1" source="JTYYkJW7ahCvb17KYF6b-1" target="JTYYkJW7ahCvb17KYF6b-28" edge="1">
          <mxGeometry relative="1" as="geometry" />
        </mxCell>
        <mxCell id="JTYYkJW7ahCvb17KYF6b-30" value="" style="edgeStyle=none;rounded=0;orthogonalLoop=1;jettySize=auto;html=1;endArrow=none;endFill=0;" parent="1" source="JTYYkJW7ahCvb17KYF6b-1" target="JTYYkJW7ahCvb17KYF6b-28" edge="1">
          <mxGeometry relative="1" as="geometry" />
        </mxCell>
        <mxCell id="JTYYkJW7ahCvb17KYF6b-31" value="" style="edgeStyle=none;rounded=0;orthogonalLoop=1;jettySize=auto;html=1;endArrow=none;endFill=0;" parent="1" source="JTYYkJW7ahCvb17KYF6b-1" target="JTYYkJW7ahCvb17KYF6b-28" edge="1">
          <mxGeometry relative="1" as="geometry" />
        </mxCell>
        <mxCell id="JTYYkJW7ahCvb17KYF6b-34" value="" style="edgeStyle=none;rounded=0;orthogonalLoop=1;jettySize=auto;html=1;endArrow=none;endFill=0;" parent="1" source="JTYYkJW7ahCvb17KYF6b-1" target="JTYYkJW7ahCvb17KYF6b-33" edge="1">
          <mxGeometry relative="1" as="geometry" />
        </mxCell>
        <mxCell id="JTYYkJW7ahCvb17KYF6b-1" value="munkagépek" style="rounded=0;whiteSpace=wrap;html=1;fillColor=#d5e8d4;strokeColor=#82b366;" parent="1" vertex="1">
          <mxGeometry x="350" y="360" width="120" height="60" as="geometry" />
        </mxCell>
        <mxCell id="JTYYkJW7ahCvb17KYF6b-2" value="birtoklás" style="rhombus;whiteSpace=wrap;html=1;rounded=0;fillColor=#e1d5e7;strokeColor=#9673a6;" parent="1" vertex="1">
          <mxGeometry x="545" y="350" width="80" height="80" as="geometry" />
        </mxCell>
        <mxCell id="JTYYkJW7ahCvb17KYF6b-36" value="" style="edgeStyle=none;rounded=0;orthogonalLoop=1;jettySize=auto;html=1;endArrow=none;endFill=0;" parent="1" source="JTYYkJW7ahCvb17KYF6b-4" target="JTYYkJW7ahCvb17KYF6b-35" edge="1">
          <mxGeometry relative="1" as="geometry" />
        </mxCell>
        <mxCell id="JTYYkJW7ahCvb17KYF6b-38" value="" style="edgeStyle=none;rounded=0;orthogonalLoop=1;jettySize=auto;html=1;endArrow=none;endFill=0;" parent="1" source="JTYYkJW7ahCvb17KYF6b-4" target="JTYYkJW7ahCvb17KYF6b-37" edge="1">
          <mxGeometry relative="1" as="geometry" />
        </mxCell>
        <mxCell id="JTYYkJW7ahCvb17KYF6b-4" value="tulajdonos" style="whiteSpace=wrap;html=1;rounded=0;fillColor=#fff2cc;strokeColor=#d6b656;" parent="1" vertex="1">
          <mxGeometry x="680" y="360" width="120" height="60" as="geometry" />
        </mxCell>
        <mxCell id="JTYYkJW7ahCvb17KYF6b-9" value="" style="edgeStyle=orthogonalEdgeStyle;rounded=0;orthogonalLoop=1;jettySize=auto;html=1;endArrow=ERmandOne;endFill=0;" parent="1" source="JTYYkJW7ahCvb17KYF6b-6" target="JTYYkJW7ahCvb17KYF6b-8" edge="1">
          <mxGeometry relative="1" as="geometry" />
        </mxCell>
        <mxCell id="JTYYkJW7ahCvb17KYF6b-6" value="tartalmazás" style="rhombus;whiteSpace=wrap;html=1;rounded=0;fillColor=#e1d5e7;strokeColor=#9673a6;" parent="1" vertex="1">
          <mxGeometry x="370" y="130" width="80" height="80" as="geometry" />
        </mxCell>
        <mxCell id="JTYYkJW7ahCvb17KYF6b-52" value="" style="edgeStyle=none;rounded=0;orthogonalLoop=1;jettySize=auto;html=1;endArrow=none;endFill=0;" parent="1" source="JTYYkJW7ahCvb17KYF6b-8" target="JTYYkJW7ahCvb17KYF6b-51" edge="1">
          <mxGeometry relative="1" as="geometry" />
        </mxCell>
        <mxCell id="JTYYkJW7ahCvb17KYF6b-54" value="" style="edgeStyle=none;rounded=0;orthogonalLoop=1;jettySize=auto;html=1;endArrow=none;endFill=0;" parent="1" source="JTYYkJW7ahCvb17KYF6b-8" target="JTYYkJW7ahCvb17KYF6b-53" edge="1">
          <mxGeometry relative="1" as="geometry" />
        </mxCell>
        <mxCell id="JTYYkJW7ahCvb17KYF6b-56" value="" style="edgeStyle=none;rounded=0;orthogonalLoop=1;jettySize=auto;html=1;endArrow=none;endFill=0;entryX=0;entryY=0.5;entryDx=0;entryDy=0;" parent="1" source="JTYYkJW7ahCvb17KYF6b-8" target="JTYYkJW7ahCvb17KYF6b-57" edge="1">
          <mxGeometry relative="1" as="geometry">
            <mxPoint x="794.5990046394841" y="95.77826633227869" as="targetPoint" />
          </mxGeometry>
        </mxCell>
        <mxCell id="JTYYkJW7ahCvb17KYF6b-59" value="" style="edgeStyle=none;rounded=0;orthogonalLoop=1;jettySize=auto;html=1;endArrow=none;endFill=0;" parent="1" source="JTYYkJW7ahCvb17KYF6b-8" target="JTYYkJW7ahCvb17KYF6b-58" edge="1">
          <mxGeometry relative="1" as="geometry" />
        </mxCell>
        <mxCell id="JTYYkJW7ahCvb17KYF6b-8" value="karosszéria" style="whiteSpace=wrap;html=1;rounded=0;fillColor=#fff2cc;strokeColor=#d6b656;" parent="1" vertex="1">
          <mxGeometry x="350" y="50" width="120" height="60" as="geometry" />
        </mxCell>
        <mxCell id="JTYYkJW7ahCvb17KYF6b-13" value="" style="edgeStyle=orthogonalEdgeStyle;rounded=0;orthogonalLoop=1;jettySize=auto;html=1;endArrow=ERoneToMany;endFill=0;exitX=0;exitY=0.5;exitDx=0;exitDy=0;" parent="1" source="JTYYkJW7ahCvb17KYF6b-10" target="JTYYkJW7ahCvb17KYF6b-12" edge="1">
          <mxGeometry relative="1" as="geometry" />
        </mxCell>
        <mxCell id="JTYYkJW7ahCvb17KYF6b-10" value="hajtás" style="rhombus;whiteSpace=wrap;html=1;rounded=0;fillColor=#e1d5e7;strokeColor=#9673a6;" parent="1" vertex="1">
          <mxGeometry x="190" y="350" width="80" height="80" as="geometry" />
        </mxCell>
        <mxCell id="JTYYkJW7ahCvb17KYF6b-44" value="" style="edgeStyle=none;rounded=0;orthogonalLoop=1;jettySize=auto;html=1;endArrow=none;endFill=0;" parent="1" source="JTYYkJW7ahCvb17KYF6b-12" target="JTYYkJW7ahCvb17KYF6b-43" edge="1">
          <mxGeometry relative="1" as="geometry" />
        </mxCell>
        <mxCell id="JTYYkJW7ahCvb17KYF6b-46" value="" style="edgeStyle=none;rounded=0;orthogonalLoop=1;jettySize=auto;html=1;endArrow=none;endFill=0;" parent="1" source="JTYYkJW7ahCvb17KYF6b-12" target="JTYYkJW7ahCvb17KYF6b-45" edge="1">
          <mxGeometry relative="1" as="geometry" />
        </mxCell>
        <mxCell id="JTYYkJW7ahCvb17KYF6b-48" value="" style="edgeStyle=none;rounded=0;orthogonalLoop=1;jettySize=auto;html=1;endArrow=none;endFill=0;" parent="1" source="JTYYkJW7ahCvb17KYF6b-12" target="JTYYkJW7ahCvb17KYF6b-47" edge="1">
          <mxGeometry relative="1" as="geometry" />
        </mxCell>
        <mxCell id="JTYYkJW7ahCvb17KYF6b-50" value="" style="edgeStyle=none;rounded=0;orthogonalLoop=1;jettySize=auto;html=1;endArrow=none;endFill=0;" parent="1" source="JTYYkJW7ahCvb17KYF6b-12" target="JTYYkJW7ahCvb17KYF6b-49" edge="1">
          <mxGeometry relative="1" as="geometry" />
        </mxCell>
        <mxCell id="JTYYkJW7ahCvb17KYF6b-12" value="motor" style="whiteSpace=wrap;html=1;rounded=0;fillColor=#fff2cc;strokeColor=#d6b656;" parent="1" vertex="1">
          <mxGeometry x="15" y="360" width="120" height="60" as="geometry" />
        </mxCell>
        <mxCell id="JTYYkJW7ahCvb17KYF6b-17" value="" style="edgeStyle=orthogonalEdgeStyle;rounded=0;orthogonalLoop=1;jettySize=auto;html=1;endArrow=ERmandOne;endFill=0;entryX=0.5;entryY=0;entryDx=0;entryDy=0;" parent="1" source="JTYYkJW7ahCvb17KYF6b-14" target="JTYYkJW7ahCvb17KYF6b-16" edge="1">
          <mxGeometry relative="1" as="geometry" />
        </mxCell>
        <mxCell id="JTYYkJW7ahCvb17KYF6b-14" value="legyártás" style="rhombus;whiteSpace=wrap;html=1;rounded=0;fillColor=#e1d5e7;strokeColor=#9673a6;" parent="1" vertex="1">
          <mxGeometry x="370" y="460" width="80" height="80" as="geometry" />
        </mxCell>
        <mxCell id="JTYYkJW7ahCvb17KYF6b-61" value="" style="edgeStyle=none;rounded=0;orthogonalLoop=1;jettySize=auto;html=1;endArrow=none;endFill=0;" parent="1" source="JTYYkJW7ahCvb17KYF6b-16" target="JTYYkJW7ahCvb17KYF6b-60" edge="1">
          <mxGeometry relative="1" as="geometry" />
        </mxCell>
        <mxCell id="JTYYkJW7ahCvb17KYF6b-63" value="" style="edgeStyle=none;rounded=0;orthogonalLoop=1;jettySize=auto;html=1;endArrow=none;endFill=0;" parent="1" source="JTYYkJW7ahCvb17KYF6b-16" target="JTYYkJW7ahCvb17KYF6b-62" edge="1">
          <mxGeometry relative="1" as="geometry" />
        </mxCell>
        <mxCell id="JTYYkJW7ahCvb17KYF6b-65" value="" style="edgeStyle=none;rounded=0;orthogonalLoop=1;jettySize=auto;html=1;endArrow=none;endFill=0;" parent="1" source="JTYYkJW7ahCvb17KYF6b-16" target="JTYYkJW7ahCvb17KYF6b-64" edge="1">
          <mxGeometry relative="1" as="geometry" />
        </mxCell>
        <mxCell id="JTYYkJW7ahCvb17KYF6b-67" value="" style="edgeStyle=none;rounded=0;orthogonalLoop=1;jettySize=auto;html=1;endArrow=none;endFill=0;" parent="1" source="JTYYkJW7ahCvb17KYF6b-16" target="JTYYkJW7ahCvb17KYF6b-66" edge="1">
          <mxGeometry relative="1" as="geometry" />
        </mxCell>
        <mxCell id="JTYYkJW7ahCvb17KYF6b-16" value="gyártás" style="whiteSpace=wrap;html=1;rounded=0;fillColor=#fff2cc;strokeColor=#d6b656;" parent="1" vertex="1">
          <mxGeometry x="350" y="570" width="120" height="60" as="geometry" />
        </mxCell>
        <mxCell id="JTYYkJW7ahCvb17KYF6b-18" value="rendszám" style="ellipse;whiteSpace=wrap;html=1;rounded=0;fontStyle=4" parent="1" vertex="1">
          <mxGeometry x="-120" y="230" width="120" height="60" as="geometry" />
        </mxCell>
        <mxCell id="JTYYkJW7ahCvb17KYF6b-20" value="kor" style="ellipse;whiteSpace=wrap;html=1;rounded=0;dashed=1;" parent="1" vertex="1">
          <mxGeometry x="150" y="230" width="120" height="60" as="geometry" />
        </mxCell>
        <mxCell id="JTYYkJW7ahCvb17KYF6b-22" value="casco azonosító (o)" style="ellipse;whiteSpace=wrap;html=1;rounded=0;" parent="1" vertex="1">
          <mxGeometry x="20" y="230" width="120" height="60" as="geometry" />
        </mxCell>
        <mxCell id="JTYYkJW7ahCvb17KYF6b-24" value="tulaj_jogsi" style="ellipse;whiteSpace=wrap;html=1;rounded=0;strokeColor=default;" parent="1" vertex="1">
          <mxGeometry x="420" y="230" width="120" height="60" as="geometry" />
        </mxCell>
        <mxCell id="JTYYkJW7ahCvb17KYF6b-26" value="motor_száma" style="ellipse;whiteSpace=wrap;html=1;rounded=0;" parent="1" vertex="1">
          <mxGeometry x="550" y="230" width="120" height="60" as="geometry" />
        </mxCell>
        <mxCell id="JTYYkJW7ahCvb17KYF6b-28" value="alváz_száma" style="ellipse;whiteSpace=wrap;html=1;rounded=0;" parent="1" vertex="1">
          <mxGeometry x="280" y="230" width="120" height="60" as="geometry" />
        </mxCell>
        <mxCell id="JTYYkJW7ahCvb17KYF6b-33" value="gyártás_sorszám" style="ellipse;whiteSpace=wrap;html=1;rounded=0;" parent="1" vertex="1">
          <mxGeometry x="680" y="230" width="120" height="60" as="geometry" />
        </mxCell>
        <mxCell id="JTYYkJW7ahCvb17KYF6b-35" value="jogosítvány_száma" style="ellipse;whiteSpace=wrap;html=1;rounded=0;fontStyle=4" parent="1" vertex="1">
          <mxGeometry x="700" y="450" width="120" height="60" as="geometry" />
        </mxCell>
        <mxCell id="JTYYkJW7ahCvb17KYF6b-40" value="" style="edgeStyle=none;rounded=0;orthogonalLoop=1;jettySize=auto;html=1;endArrow=none;endFill=0;" parent="1" source="JTYYkJW7ahCvb17KYF6b-37" target="JTYYkJW7ahCvb17KYF6b-39" edge="1">
          <mxGeometry relative="1" as="geometry" />
        </mxCell>
        <mxCell id="JTYYkJW7ahCvb17KYF6b-42" value="" style="edgeStyle=none;rounded=0;orthogonalLoop=1;jettySize=auto;html=1;endArrow=none;endFill=0;" parent="1" source="JTYYkJW7ahCvb17KYF6b-37" target="JTYYkJW7ahCvb17KYF6b-41" edge="1">
          <mxGeometry relative="1" as="geometry" />
        </mxCell>
        <mxCell id="JTYYkJW7ahCvb17KYF6b-37" value="név" style="ellipse;whiteSpace=wrap;html=1;rounded=0;" parent="1" vertex="1">
          <mxGeometry x="820" y="340" width="120" height="60" as="geometry" />
        </mxCell>
        <mxCell id="JTYYkJW7ahCvb17KYF6b-39" value="vezetéknév" style="ellipse;whiteSpace=wrap;html=1;rounded=0;" parent="1" vertex="1">
          <mxGeometry x="820" y="270" width="120" height="60" as="geometry" />
        </mxCell>
        <mxCell id="JTYYkJW7ahCvb17KYF6b-41" value="keresztnév" style="ellipse;whiteSpace=wrap;html=1;rounded=0;" parent="1" vertex="1">
          <mxGeometry x="950" y="330" width="120" height="60" as="geometry" />
        </mxCell>
        <mxCell id="JTYYkJW7ahCvb17KYF6b-43" value="motorszám" style="ellipse;whiteSpace=wrap;html=1;rounded=0;fontStyle=4" parent="1" vertex="1">
          <mxGeometry x="-175" y="460" width="120" height="60" as="geometry" />
        </mxCell>
        <mxCell id="JTYYkJW7ahCvb17KYF6b-45" value="üzemanyag" style="ellipse;whiteSpace=wrap;html=1;rounded=0;" parent="1" vertex="1">
          <mxGeometry x="-45" y="460" width="120" height="60" as="geometry" />
        </mxCell>
        <mxCell id="JTYYkJW7ahCvb17KYF6b-47" value="nyomaték" style="ellipse;whiteSpace=wrap;html=1;rounded=0;" parent="1" vertex="1">
          <mxGeometry x="215" y="460" width="120" height="60" as="geometry" />
        </mxCell>
        <mxCell id="JTYYkJW7ahCvb17KYF6b-49" value="lóerő" style="ellipse;whiteSpace=wrap;html=1;rounded=0;" parent="1" vertex="1">
          <mxGeometry x="85" y="460" width="120" height="60" as="geometry" />
        </mxCell>
        <mxCell id="JTYYkJW7ahCvb17KYF6b-51" value="alvázszám" style="ellipse;whiteSpace=wrap;html=1;rounded=0;fontStyle=4" parent="1" vertex="1">
          <mxGeometry x="160" y="20" width="120" height="60" as="geometry" />
        </mxCell>
        <mxCell id="JTYYkJW7ahCvb17KYF6b-53" value="felület" style="ellipse;whiteSpace=wrap;html=1;rounded=0;" parent="1" vertex="1">
          <mxGeometry x="280" y="-20" width="120" height="60" as="geometry" />
        </mxCell>
        <mxCell id="JTYYkJW7ahCvb17KYF6b-57" value="szín" style="ellipse;shape=doubleEllipse;whiteSpace=wrap;html=1;strokeColor=default;" parent="1" vertex="1">
          <mxGeometry x="545" y="20" width="100" height="60" as="geometry" />
        </mxCell>
        <mxCell id="JTYYkJW7ahCvb17KYF6b-58" value="engedély" style="ellipse;whiteSpace=wrap;html=1;rounded=0;" parent="1" vertex="1">
          <mxGeometry x="420" y="-20" width="120" height="60" as="geometry" />
        </mxCell>
        <mxCell id="JTYYkJW7ahCvb17KYF6b-60" value="gyártásID" style="ellipse;whiteSpace=wrap;html=1;rounded=0;fontStyle=4" parent="1" vertex="1">
          <mxGeometry x="160" y="660" width="120" height="60" as="geometry" />
        </mxCell>
        <mxCell id="JTYYkJW7ahCvb17KYF6b-62" value="márka" style="ellipse;whiteSpace=wrap;html=1;rounded=0;" parent="1" vertex="1">
          <mxGeometry x="290" y="660" width="120" height="60" as="geometry" />
        </mxCell>
        <mxCell id="JTYYkJW7ahCvb17KYF6b-64" value="gyártási_év" style="ellipse;whiteSpace=wrap;html=1;rounded=0;" parent="1" vertex="1">
          <mxGeometry x="550" y="660" width="120" height="60" as="geometry" />
        </mxCell>
        <mxCell id="JTYYkJW7ahCvb17KYF6b-66" value="modell" style="ellipse;whiteSpace=wrap;html=1;rounded=0;" parent="1" vertex="1">
          <mxGeometry x="420" y="660" width="120" height="60" as="geometry" />
        </mxCell>
        <mxCell id="vsMyAgimUWC13UNQaLvP-1" value="birtoklás_kezdete" style="ellipse;whiteSpace=wrap;html=1;rounded=0;" parent="1" vertex="1">
          <mxGeometry x="530" y="450" width="110" height="60" as="geometry" />
        </mxCell>
        <mxCell id="vsMyAgimUWC13UNQaLvP-3" value="" style="endArrow=none;html=1;rounded=0;entryX=0.5;entryY=1;entryDx=0;entryDy=0;exitX=0.5;exitY=0;exitDx=0;exitDy=0;" parent="1" source="vsMyAgimUWC13UNQaLvP-1" target="JTYYkJW7ahCvb17KYF6b-2" edge="1">
          <mxGeometry width="50" height="50" relative="1" as="geometry">
            <mxPoint x="1010" y="610" as="sourcePoint" />
            <mxPoint x="1060" y="560" as="targetPoint" />
          </mxGeometry>
        </mxCell>
        <mxCell id="2" value="" style="rounded=0;orthogonalLoop=1;jettySize=auto;html=1;endArrow=none;endFill=0;startArrow=ERoneToMany;startFill=0;exitX=0;exitY=0.5;exitDx=0;exitDy=0;entryX=1;entryY=0.5;entryDx=0;entryDy=0;" parent="1" source="JTYYkJW7ahCvb17KYF6b-4" edge="1" target="JTYYkJW7ahCvb17KYF6b-2">
          <mxGeometry relative="1" as="geometry">
            <mxPoint x="1009.71" y="375" as="sourcePoint" />
            <mxPoint x="1010" y="450" as="targetPoint" />
          </mxGeometry>
        </mxCell>
      </root>
    </mxGraphModel>
  </diagram>
</mxfile>
